<svg width="404" height="593" viewBox="0 0 404 593" fill="none" xmlns="http://www.w3.org/2000/svg">
<path d="M400.814 250.415H402.091V180.146H400.814V250.415Z" fill="#757575"/>
<path d="M401.445 169.288C402.722 169.288 404 168.011 404 166.733V140.542C404 139.264 402.722 137.987 401.445 137.987C400.167 137.987 398.889 139.264 398.889 140.542V166.733C398.889 168.011 400.167 169.288 401.445 169.288Z" fill="#FF0000" fill-opacity="0.67"/>
<path d="M400.814 126.485H402.091V6.10352e-05H400.814V126.485Z" fill="#757575"/>
<path d="M379.728 250.414H381.005V198.031H379.728V250.414Z" fill="#757575"/>
<path d="M380.372 187.174C381.65 187.174 382.927 185.896 382.927 184.619V158.427C382.927 157.15 381.65 155.872 380.372 155.872C379.094 155.872 377.817 157.15 377.817 158.427V184.619C377.817 185.896 379.094 187.174 380.372 187.174Z" fill="#FF0000" fill-opacity="0.67"/>
<path d="M359.307 163.782C360.584 163.782 361.862 162.505 361.862 161.227V135.036C361.862 133.758 360.584 132.48 359.307 132.48C358.029 132.48 356.751 133.758 356.751 135.036V161.227C356.751 162.505 358.029 163.782 359.307 163.782Z" fill="#FF0000" fill-opacity="0.67"/>
<path d="M45.2446 163.782C46.5222 163.782 47.7998 162.505 47.7998 161.227V135.036C47.7998 133.758 46.5222 132.48 45.2446 132.48C43.967 132.48 42.6894 133.758 42.6894 135.036V161.227C42.6894 162.505 43.967 163.782 45.2446 163.782Z" fill="#FF0000" fill-opacity="0.67"/>
<path d="M379.728 144.371H381.005V6.10352e-05H379.728V144.371Z" fill="#757575"/>
<path d="M358.642 250.414H359.919V172.479H358.642V250.414Z" fill="#757575"/>
<path d="M358.642 118.819H359.919V6.10352e-05H358.642V118.819Z" fill="#757575"/>
<path d="M337.572 250.418H338.21V147.569H337.572V250.418Z" fill="#757575"/>
<path d="M338.203 136.706C339.481 136.706 340.12 135.428 340.12 134.15V107.959C340.12 106.681 339.481 105.404 338.203 105.404C336.287 105.404 335.648 106.681 335.648 107.959V134.15C335.648 135.428 336.287 136.706 338.203 136.706Z" fill="#FF0000" fill-opacity="0.67"/>
<path d="M337.572 93.9052H338.21V6.10352e-05H337.572V93.9052Z" fill="#757575"/>
<path d="M315.848 250.415H317.125V180.146H315.848V250.415Z" fill="#757575"/>
<path d="M316.491 169.288C317.768 169.288 319.046 168.011 319.046 166.733V140.542C319.046 139.264 317.768 137.987 316.491 137.987C315.213 137.987 314.574 139.264 314.574 140.542V166.733C314.574 168.011 315.213 169.288 316.491 169.288Z" fill="#FF0000" fill-opacity="0.67"/>
<path d="M315.848 126.485H317.125V6.10352e-05H315.848V126.485Z" fill="#757575"/>
<path d="M294.761 250.415H296.039V151.399H294.761V250.415Z" fill="#757575"/>
<path d="M295.405 140.539C296.682 140.539 297.96 139.262 297.96 137.984V111.793C297.96 110.515 296.682 109.877 295.405 109.877C294.127 109.877 292.85 110.515 292.85 111.793V137.984C292.85 139.262 294.127 140.539 295.405 140.539Z" fill="#FF0000" fill-opacity="0.67"/>
<path d="M4.1862 250.415H2.90869V180.146H4.1862V250.415Z" fill="#757575"/>
<path d="M3.5552 169.288C2.27758 169.288 1 168.011 1 166.733V140.542C1 139.264 2.27758 137.987 3.5552 137.987C4.83282 137.987 6.1106 139.264 6.1106 140.542V166.733C6.1106 168.011 4.83282 169.288 3.5552 169.288Z" fill="#FF0000" fill-opacity="0.67"/>
<path d="M4.1862 126.485H2.90869V6.10352e-05H4.1862V126.485Z" fill="#757575"/>
<path d="M25.2723 250.414H23.9946V198.031H25.2723V250.414Z" fill="#757575"/>
<path d="M24.628 187.174C23.3503 187.174 22.0728 185.896 22.0728 184.619V158.427C22.0728 157.15 23.3503 155.872 24.628 155.872C25.9056 155.872 27.1832 157.15 27.1832 158.427V184.619C27.1832 185.896 25.9056 187.174 24.628 187.174Z" fill="#FF0000" fill-opacity="0.67"/>
<path d="M25.2723 144.371H23.9946V6.10352e-05H25.2723V144.371Z" fill="#757575"/>
<path d="M46.3583 250.414H45.0806V172.479H46.3583V250.414Z" fill="#757575"/>
<path d="M46.3583 118.819H45.0806V6.10352e-05H46.3583V118.819Z" fill="#757575"/>
<path d="M67.4282 250.418H66.7896V147.569H67.4282V250.418Z" fill="#757575"/>
<path d="M66.7969 136.706C65.5193 136.706 64.8804 135.428 64.8804 134.15V107.959C64.8804 106.681 65.5193 105.404 66.7969 105.404C68.7134 105.404 69.3521 106.681 69.3521 107.959V134.15C69.3521 135.428 68.7134 136.706 66.7969 136.706Z" fill="#FF0000" fill-opacity="0.67"/>
<path d="M67.4282 93.9052H66.7896V6.10352e-05H67.4282V93.9052Z" fill="#757575"/>
<path d="M89.1522 250.415H87.8745V180.146H89.1522V250.415Z" fill="#757575"/>
<path d="M88.5093 169.288C87.2317 169.288 85.9541 168.011 85.9541 166.733V140.542C85.9541 139.264 87.2317 137.987 88.5093 137.987C89.7869 137.987 90.4257 139.264 90.4257 140.542V166.733C90.4257 168.011 89.7869 169.288 88.5093 169.288Z" fill="#FF0000" fill-opacity="0.67"/>
<path d="M89.1522 126.485H87.8745V6.10352e-05H89.1522V126.485Z" fill="#757575"/>
<path d="M110.239 250.415H108.961V151.399H110.239V250.415Z" fill="#757575"/>
<path d="M109.595 140.539C108.318 140.539 107.04 139.262 107.04 137.984V111.793C107.04 110.515 108.318 109.877 109.595 109.877C110.873 109.877 112.15 110.515 112.15 111.793V137.984C112.15 139.262 110.873 140.539 109.595 140.539Z" fill="#FF0000" fill-opacity="0.67"/>
<path d="M110.239 97.7381H108.961V6.10352e-05H110.239V97.7381Z" fill="#757575"/>
<path d="M131.312 250.419H130.034V145.654H131.312V250.419Z" fill="#757575"/>
<path d="M130.68 134.79C129.403 134.79 128.125 133.513 128.125 132.235V106.044C128.125 104.766 129.403 103.489 130.68 103.489C131.958 103.489 133.236 104.766 133.236 106.044V132.235C133.236 133.513 131.958 134.79 130.68 134.79Z" fill="#FF0000" fill-opacity="0.67"/>
<path d="M131.312 91.9888H130.034V6.10352e-05H131.312V91.9888Z" fill="#757575"/>
<path d="M152.398 250.415H151.12V167.37H152.398V250.415Z" fill="#757575"/>
<path d="M151.754 156.512C150.476 156.512 149.199 155.235 149.199 153.957V127.766C149.199 126.488 150.476 125.211 151.754 125.211C153.032 125.211 154.309 126.488 154.309 127.766V153.957C154.309 155.235 153.032 156.512 151.754 156.512Z" fill="#FF0000" fill-opacity="0.67"/>
<path d="M152.398 113.708H151.12V6.10352e-05H152.398V113.708Z" fill="#757575"/>
<path d="M173.471 250.418H172.193V201.868H173.471V250.418Z" fill="#757575"/>
<path d="M172.837 191.004C171.559 191.004 170.92 189.727 170.92 188.449V162.258C170.92 160.98 171.559 159.703 172.837 159.703C174.114 159.703 175.392 160.98 175.392 162.258V188.449C175.392 189.727 174.114 191.004 172.837 191.004Z" fill="#FF0000" fill-opacity="0.67"/>
<path d="M173.471 148.204H172.193V6.10352e-05H173.471V148.204Z" fill="#757575"/>
<path d="M194.555 250.414H193.916V217.195H194.555V250.414Z" fill="#757575"/>
<path d="M194.562 206.336C192.645 206.336 192.006 205.058 192.006 203.781V177.589C192.006 176.312 192.645 175.673 194.562 175.673C195.839 175.673 196.478 176.312 196.478 177.589V203.781C196.478 205.058 195.839 206.336 194.562 206.336Z" fill="#FF0000" fill-opacity="0.67"/>
<path d="M194.555 163.536H193.916V6.10352e-05H194.555V163.536Z" fill="#757575"/>
<path d="M294.761 97.7381H296.039V6.10352e-05H294.761V97.7381Z" fill="#757575"/>
<path d="M273.688 250.419H274.966V145.654H273.688V250.419Z" fill="#757575"/>
<path d="M274.32 134.79C275.597 134.79 276.875 133.513 276.875 132.235V106.044C276.875 104.766 275.597 103.489 274.32 103.489C273.042 103.489 271.764 104.766 271.764 106.044V132.235C271.764 133.513 273.042 134.79 274.32 134.79Z" fill="#FF0000" fill-opacity="0.67"/>
<path d="M273.688 91.9888H274.966V6.10352e-05H273.688V91.9888Z" fill="#757575"/>
<path d="M252.602 250.415H253.88V167.37H252.602V250.415Z" fill="#757575"/>
<path d="M253.246 156.512C254.524 156.512 255.801 155.235 255.801 153.957V127.766C255.801 126.488 254.524 125.211 253.246 125.211C251.968 125.211 250.691 126.488 250.691 127.766V153.957C250.691 155.235 251.968 156.512 253.246 156.512Z" fill="#FF0000" fill-opacity="0.67"/>
<path d="M252.602 113.708H253.88V6.10352e-05H252.602V113.708Z" fill="#757575"/>
<path d="M231.529 250.418H232.807V201.868H231.529V250.418Z" fill="#757575"/>
<path d="M232.163 191.004C233.441 191.004 234.08 189.727 234.08 188.449V162.258C234.08 160.98 233.441 159.703 232.163 159.703C230.886 159.703 229.608 160.98 229.608 162.258V188.449C229.608 189.727 230.886 191.004 232.163 191.004Z" fill="#FF0000" fill-opacity="0.67"/>
<path d="M231.529 148.204H232.807V6.10352e-05H231.529V148.204Z" fill="#757575"/>
<path d="M210.445 250.414H211.084V217.195H210.445V250.414Z" fill="#757575"/>
<path d="M210.438 206.336C212.355 206.336 212.994 205.058 212.994 203.781V177.589C212.994 176.312 212.355 175.673 210.438 175.673C209.161 175.673 208.522 176.312 208.522 177.589V203.781C208.522 205.058 209.161 206.336 210.438 206.336Z" fill="#FF0000" fill-opacity="0.67"/>
<path d="M210.445 163.536H211.084V6.10352e-05H210.445V163.536Z" fill="#757575"/>
<path d="M3.03571 301L3.99225 295.849H1.85843V294.255H4.26204L5.09594 289.84H2.71686V288.246H5.36574L6.32227 283.096H8.03914L7.0826 288.246H11.0069L11.9634 283.096H13.6803L12.7237 288.246H14.8575V289.84H12.4539L11.62 294.255H13.9991V295.849H11.3502L10.3937 301H8.67683L9.63337 295.849H5.70911L4.75257 301H3.03571ZM5.9789 294.255H9.90316L10.7371 289.84H6.81281L5.9789 294.255ZM23.2606 301.245C21.6255 301.245 20.3174 300.787 19.3363 299.872C18.3553 298.956 17.8647 297.697 17.8647 296.095V292.416C17.8647 290.813 18.3553 289.554 19.3363 288.639C20.3174 287.723 21.6255 287.265 23.2606 287.265C24.8139 287.265 26.0648 287.682 27.0132 288.516C27.9779 289.35 28.4847 290.486 28.5338 291.925H26.3264C26.2774 291.059 25.983 290.396 25.4434 289.938C24.9039 289.464 24.1762 289.227 23.2606 289.227C22.2959 289.227 21.5192 289.505 20.9306 290.061C20.3583 290.601 20.0721 291.377 20.0721 292.391V296.095C20.0721 297.108 20.3583 297.893 20.9306 298.449C21.5192 299.005 22.2959 299.283 23.2606 299.283C24.1762 299.283 24.9039 299.046 25.4434 298.572C25.983 298.098 26.2774 297.435 26.3264 296.585H28.5338C28.4847 298.024 27.9779 299.161 27.0132 299.994C26.0648 300.828 24.8139 301.245 23.2606 301.245ZM51.6923 301.245C50.3515 301.245 49.2723 300.796 48.4548 299.896C47.6536 298.997 47.253 297.779 47.253 296.242V292.293C47.253 290.74 47.6536 289.513 48.4548 288.614C49.256 287.715 50.3351 287.265 51.6923 287.265C52.7061 287.265 53.54 287.519 54.194 288.025C54.8644 288.532 55.265 289.219 55.3958 290.086H55.4203L55.3713 287.02V283.096H57.5787V301H55.3713V298.425H55.3468C55.2323 299.308 54.848 300.003 54.194 300.509C53.54 301 52.7061 301.245 51.6923 301.245ZM52.4281 299.332C53.3437 299.332 54.0632 299.046 54.5864 298.474C55.1097 297.901 55.3713 297.108 55.3713 296.095V292.416C55.3713 291.402 55.1097 290.609 54.5864 290.037C54.0632 289.464 53.3437 289.178 52.4281 289.178C51.4961 289.178 50.7685 289.423 50.2452 289.914C49.722 290.388 49.4604 291.181 49.4604 292.293V296.217C49.4604 297.313 49.722 298.106 50.2452 298.596C50.7685 299.087 51.4961 299.332 52.4281 299.332ZM67.1835 301.245C65.5975 301.245 64.3139 300.771 63.3328 299.823C62.3681 298.858 61.8858 297.534 61.8858 295.849V292.661C61.8858 290.977 62.3681 289.661 63.3328 288.712C64.3139 287.747 65.5975 287.265 67.1835 287.265C68.2463 287.265 69.1702 287.478 69.955 287.903C70.7562 288.328 71.3776 288.925 71.8191 289.693C72.2605 290.462 72.4813 291.369 72.4813 292.416V294.819H64.0441V296.095C64.0441 297.092 64.3303 297.885 64.9025 298.474C65.4748 299.046 66.2352 299.332 67.1835 299.332C68.0011 299.332 68.6715 299.177 69.1947 298.866C69.7343 298.539 70.0613 298.106 70.1758 297.566H72.3832C72.236 298.694 71.6882 299.594 70.7399 300.264C69.7915 300.918 68.6061 301.245 67.1835 301.245ZM64.0441 293.102H70.3229V292.416C70.3229 291.353 70.045 290.535 69.489 289.963C68.9494 289.374 68.1809 289.08 67.1835 289.08C66.1861 289.08 65.4094 289.374 64.8535 289.963C64.3139 290.535 64.0441 291.353 64.0441 292.416V293.102ZM90.4646 301L95.2473 294.059L90.759 287.51H93.3588L96.0322 291.68C96.1466 291.86 96.2529 292.056 96.351 292.269C96.4655 292.481 96.5554 292.653 96.6208 292.784C96.6699 292.653 96.7435 292.481 96.8416 292.269C96.956 292.056 97.0705 291.86 97.1849 291.68L99.8583 287.51H102.458L97.9698 294.083L102.728 301H100.128L97.234 296.585C97.1195 296.405 97.0051 296.201 96.8906 295.972C96.7925 295.727 96.7026 295.531 96.6208 295.383C96.5554 295.531 96.4573 295.727 96.3265 295.972C96.212 296.201 96.0894 296.405 95.9586 296.585L93.0645 301H90.4646ZM106.029 301V298.989H110.812V289.522H106.52V287.51H113.02V298.989H117.557V301H106.029ZM111.671 285.082C111.131 285.082 110.706 284.943 110.395 284.665C110.085 284.387 109.929 284.011 109.929 283.537C109.929 283.047 110.085 282.662 110.395 282.384C110.706 282.09 111.131 281.943 111.671 281.943C112.21 281.943 112.635 282.09 112.946 282.384C113.257 282.662 113.412 283.047 113.412 283.537C113.412 284.011 113.257 284.387 112.946 284.665C112.635 284.943 112.21 285.082 111.671 285.082ZM126.009 301.196C124.39 301.196 123.099 300.722 122.134 299.774C121.185 298.825 120.711 297.501 120.711 295.8V292.71C120.711 290.993 121.185 289.669 122.134 288.737C123.082 287.788 124.374 287.314 126.009 287.314C127.644 287.314 128.936 287.788 129.884 288.737C130.833 289.669 131.307 290.993 131.307 292.71V295.8C131.307 297.501 130.824 298.825 129.86 299.774C128.911 300.722 127.628 301.196 126.009 301.196ZM126.009 299.234C126.974 299.234 127.726 298.964 128.266 298.425C128.821 297.885 129.099 297.092 129.099 296.046V292.465C129.099 291.418 128.821 290.625 128.266 290.086C127.726 289.546 126.974 289.276 126.009 289.276C125.061 289.276 124.309 289.546 123.753 290.086C123.197 290.625 122.919 291.418 122.919 292.465V296.046C122.919 297.092 123.197 297.885 123.753 298.425C124.309 298.964 125.061 299.234 126.009 299.234ZM134.829 301V287.51H136.742V289.301H136.791C136.873 288.696 137.11 288.205 137.502 287.829C137.911 287.453 138.426 287.265 139.048 287.265C139.636 287.265 140.135 287.437 140.544 287.78C140.953 288.124 141.247 288.59 141.427 289.178H141.451C141.566 288.59 141.819 288.124 142.212 287.78C142.62 287.437 143.135 287.265 143.757 287.265C144.623 287.265 145.31 287.592 145.817 288.246C146.34 288.884 146.602 289.718 146.602 290.748V301H144.542V290.723C144.542 290.184 144.411 289.759 144.149 289.448C143.888 289.121 143.528 288.957 143.07 288.957C142.629 288.957 142.277 289.113 142.015 289.423C141.754 289.734 141.623 290.159 141.623 290.699V301H139.808V290.723C139.808 290.184 139.677 289.759 139.416 289.448C139.154 289.121 138.802 288.957 138.361 288.957C137.903 288.957 137.543 289.113 137.282 289.423C137.02 289.734 136.889 290.159 136.889 290.699V301H134.829ZM154.245 301.245C152.855 301.245 151.751 300.861 150.933 300.093C150.116 299.308 149.707 298.286 149.707 297.027C149.707 296.193 149.895 295.465 150.271 294.844C150.647 294.222 151.171 293.74 151.841 293.397C152.511 293.037 153.28 292.857 154.146 292.857H158.316V291.803C158.316 290.053 157.359 289.178 155.446 289.178C154.596 289.178 153.909 289.334 153.386 289.644C152.863 289.955 152.585 290.388 152.552 290.944H150.345C150.427 289.881 150.917 289.006 151.816 288.32C152.732 287.617 153.942 287.265 155.446 287.265C157.081 287.265 158.332 287.658 159.199 288.442C160.082 289.227 160.523 290.323 160.523 291.729V301H158.34V298.547H158.291C158.161 299.381 157.744 300.043 157.041 300.534C156.337 301.008 155.405 301.245 154.245 301.245ZM154.784 299.381C155.863 299.381 156.722 299.12 157.359 298.596C157.997 298.073 158.316 297.362 158.316 296.463V294.574H154.392C153.672 294.574 153.084 294.795 152.626 295.236C152.184 295.661 151.964 296.234 151.964 296.953C151.964 297.705 152.209 298.302 152.699 298.744C153.206 299.169 153.901 299.381 154.784 299.381ZM165.027 301V287.51H167.234V290.086H167.259C167.373 289.186 167.741 288.491 168.362 288.001C168.984 287.51 169.809 287.265 170.839 287.265C172.197 287.265 173.276 287.682 174.077 288.516C174.878 289.35 175.279 290.486 175.279 291.925V301H173.071V292.318C173.071 291.287 172.81 290.503 172.287 289.963C171.78 289.407 171.085 289.129 170.202 289.129C169.286 289.129 168.559 289.415 168.019 289.988C167.496 290.56 167.234 291.369 167.234 292.416V301H165.027ZM181.842 305.415L183.829 300.166L178.801 287.51H181.18L184.369 295.849C184.499 296.176 184.622 296.52 184.737 296.88C184.851 297.239 184.933 297.55 184.982 297.812C185.031 297.55 185.113 297.239 185.227 296.88C185.341 296.52 185.456 296.176 185.57 295.849L188.538 287.51H190.868L184.148 305.415H181.842ZM199.737 301.245C198.102 301.245 196.794 300.787 195.813 299.872C194.832 298.956 194.341 297.697 194.341 296.095V292.416C194.341 290.813 194.832 289.554 195.813 288.639C196.794 287.723 198.102 287.265 199.737 287.265C201.291 287.265 202.541 287.682 203.49 288.516C204.454 289.35 204.961 290.486 205.01 291.925H202.803C202.754 291.059 202.46 290.396 201.92 289.938C201.38 289.464 200.653 289.227 199.737 289.227C198.772 289.227 197.996 289.505 197.407 290.061C196.835 290.601 196.549 291.377 196.549 292.391V296.095C196.549 297.108 196.835 297.893 197.407 298.449C197.996 299.005 198.772 299.283 199.737 299.283C200.653 299.283 201.38 299.046 201.92 298.572C202.46 298.098 202.754 297.435 202.803 296.585H205.01C204.961 298.024 204.454 299.161 203.49 299.994C202.541 300.828 201.291 301.245 199.737 301.245ZM361.311 301.196C359.692 301.196 358.401 300.722 357.436 299.774C356.488 298.825 356.013 297.501 356.013 295.8V292.71C356.013 290.993 356.488 289.669 357.436 288.737C358.384 287.788 359.676 287.314 361.311 287.314C362.946 287.314 364.238 287.788 365.186 288.737C366.135 289.669 366.609 290.993 366.609 292.71V295.8C366.609 297.501 366.127 298.825 365.162 299.774C364.214 300.722 362.93 301.196 361.311 301.196ZM361.311 299.234C362.276 299.234 363.028 298.964 363.568 298.425C364.124 297.885 364.402 297.092 364.402 296.046V292.465C364.402 291.418 364.124 290.625 363.568 290.086C363.028 289.546 362.276 289.276 361.311 289.276C360.363 289.276 359.611 289.546 359.055 290.086C358.499 290.625 358.221 291.418 358.221 292.465V296.046C358.221 297.092 358.499 297.885 359.055 298.425C359.611 298.964 360.363 299.234 361.311 299.234ZM370.916 305.415V287.51H373.123V290.086H373.148C373.262 289.203 373.647 288.516 374.301 288.025C374.955 287.519 375.789 287.265 376.802 287.265C378.16 287.265 379.239 287.715 380.04 288.614C380.841 289.497 381.242 290.715 381.242 292.269V296.217C381.242 297.771 380.841 298.997 380.04 299.896C379.239 300.796 378.16 301.245 376.802 301.245C375.789 301.245 374.955 300.992 374.301 300.485C373.647 299.978 373.262 299.291 373.148 298.425H373.074L373.123 301.491V305.415H370.916ZM376.067 299.332C376.999 299.332 377.726 299.087 378.25 298.596C378.773 298.106 379.034 297.313 379.034 296.217V292.293C379.034 291.181 378.773 290.388 378.25 289.914C377.726 289.423 376.999 289.178 376.067 289.178C375.167 289.178 374.448 289.464 373.908 290.037C373.385 290.609 373.123 291.402 373.123 292.416V296.095C373.123 297.108 373.385 297.901 373.908 298.474C374.448 299.046 375.167 299.332 376.067 299.332ZM385.622 305.415V287.51H387.83V290.086H387.854C387.969 289.203 388.353 288.516 389.007 288.025C389.661 287.519 390.495 287.265 391.509 287.265C392.866 287.265 393.945 287.715 394.746 288.614C395.548 289.497 395.948 290.715 395.948 292.269V296.217C395.948 297.771 395.548 298.997 394.746 299.896C393.945 300.796 392.866 301.245 391.509 301.245C390.495 301.245 389.661 300.992 389.007 300.485C388.353 299.978 387.969 299.291 387.854 298.425H387.781L387.83 301.491V305.415H385.622ZM390.773 299.332C391.705 299.332 392.433 299.087 392.956 298.596C393.479 298.106 393.741 297.313 393.741 296.217V292.293C393.741 291.181 393.479 290.388 392.956 289.914C392.433 289.423 391.705 289.178 390.773 289.178C389.874 289.178 389.154 289.464 388.615 290.037C388.091 290.609 387.83 291.402 387.83 292.416V296.095C387.83 297.108 388.091 297.901 388.615 298.474C389.154 299.046 389.874 299.332 390.773 299.332ZM3.03571 334L3.99225 328.849H1.85843V327.255H4.26204L5.09594 322.84H2.71686V321.246H5.36574L6.32227 316.096H8.03914L7.0826 321.246H11.0069L11.9634 316.096H13.6803L12.7237 321.246H14.8575V322.84H12.4539L11.62 327.255H13.9991V328.849H11.3502L10.3937 334H8.67683L9.63337 328.849H5.70911L4.75257 334H3.03571ZM5.9789 327.255H9.90316L10.7371 322.84H6.81281L5.9789 327.255ZM17.9628 334V320.51H20.1702V323.086H20.1948C20.3092 322.186 20.6771 321.491 21.2985 321.001C21.9198 320.51 22.7455 320.265 23.7756 320.265C25.1328 320.265 26.2119 320.682 27.0132 321.516C27.8144 322.35 28.215 323.486 28.215 324.925V334H26.0076V325.318C26.0076 324.287 25.7459 323.503 25.2227 322.963C24.7158 322.407 24.0209 322.129 23.1379 322.129C22.2223 322.129 21.4947 322.415 20.9551 322.988C20.4318 323.56 20.1702 324.369 20.1702 325.416V334H17.9628ZM37.7708 334.196C36.152 334.196 34.8603 333.722 33.8955 332.774C32.9472 331.825 32.473 330.501 32.473 328.8V325.71C32.473 323.993 32.9472 322.669 33.8955 321.737C34.8439 320.788 36.1356 320.314 37.7708 320.314C39.4059 320.314 40.6976 320.788 41.646 321.737C42.5943 322.669 43.0685 323.993 43.0685 325.71V328.8C43.0685 330.501 42.5861 331.825 41.6214 332.774C40.6731 333.722 39.3895 334.196 37.7708 334.196ZM37.7708 332.234C38.7355 332.234 39.4876 331.964 40.0272 331.425C40.5831 330.885 40.8611 330.092 40.8611 329.046V325.465C40.8611 324.418 40.5831 323.625 40.0272 323.086C39.4876 322.546 38.7355 322.276 37.7708 322.276C36.8224 322.276 36.0702 322.546 35.5143 323.086C34.9584 323.625 34.6804 324.418 34.6804 325.465V329.046C34.6804 330.092 34.9584 330.885 35.5143 331.425C36.0702 331.964 36.8224 332.234 37.7708 332.234ZM51.0301 334L46.4436 320.51H48.8227L51.7659 329.585C51.9457 330.125 52.1011 330.648 52.2319 331.155C52.3627 331.645 52.4608 332.03 52.5262 332.308C52.6079 332.03 52.7061 331.645 52.8205 331.155C52.935 330.648 53.074 330.125 53.2375 329.585L56.1807 320.51H58.5107L53.9242 334H51.0301ZM66.0062 334.245C64.6164 334.245 63.5127 333.861 62.6952 333.093C61.8776 332.308 61.4688 331.286 61.4688 330.027C61.4688 329.193 61.6569 328.465 62.0329 327.844C62.409 327.222 62.9322 326.74 63.6026 326.397C64.273 326.037 65.0415 325.857 65.9081 325.857H70.0777V324.803C70.0777 323.053 69.1211 322.178 67.208 322.178C66.3578 322.178 65.671 322.334 65.1478 322.644C64.6246 322.955 64.3466 323.388 64.3139 323.944H62.1065C62.1883 322.881 62.6788 322.006 63.5781 321.32C64.4938 320.617 65.7037 320.265 67.208 320.265C68.8432 320.265 70.094 320.658 70.9606 321.442C71.8436 322.227 72.2851 323.323 72.2851 324.729V334H70.1022V331.547H70.0531C69.9223 332.381 69.5054 333.043 68.8023 333.534C68.0992 334.008 67.1672 334.245 66.0062 334.245ZM66.5458 332.381C67.625 332.381 68.4834 332.12 69.1211 331.596C69.7588 331.073 70.0777 330.362 70.0777 329.463V327.574H66.1534C65.434 327.574 64.8453 327.795 64.3875 328.236C63.946 328.661 63.7253 329.234 63.7253 329.953C63.7253 330.705 63.9705 331.302 64.4611 331.744C64.968 332.169 65.6629 332.381 66.5458 332.381ZM91.4948 334V316.096H93.7022V323.086H93.7267C93.8411 322.186 94.209 321.491 94.8304 321.001C95.4517 320.51 96.2774 320.265 97.3076 320.265C98.6647 320.265 99.7439 320.682 100.545 321.516C101.346 322.35 101.747 323.486 101.747 324.925V334H99.5395V325.293C99.5395 324.279 99.2779 323.503 98.7546 322.963C98.2478 322.407 97.5528 322.129 96.6699 322.129C95.7542 322.129 95.0266 322.415 94.487 322.988C93.9638 323.56 93.7022 324.369 93.7022 325.416V334H91.4948ZM108.31 338.415L110.297 333.166L105.269 320.51H107.648L110.837 328.849C110.967 329.176 111.09 329.52 111.205 329.88C111.319 330.239 111.401 330.55 111.45 330.812C111.499 330.55 111.581 330.239 111.695 329.88C111.81 329.52 111.924 329.176 112.038 328.849L115.006 320.51H117.336L110.616 338.415H108.31ZM120.908 338.415V320.51H123.115V323.086H123.139C123.254 322.203 123.638 321.516 124.292 321.025C124.946 320.519 125.78 320.265 126.794 320.265C128.151 320.265 129.23 320.715 130.031 321.614C130.833 322.497 131.233 323.715 131.233 325.269V329.217C131.233 330.771 130.833 331.997 130.031 332.896C129.23 333.796 128.151 334.245 126.794 334.245C125.78 334.245 124.946 333.992 124.292 333.485C123.638 332.978 123.254 332.291 123.139 331.425H123.066L123.115 334.491V338.415H120.908ZM126.058 332.332C126.99 332.332 127.718 332.087 128.241 331.596C128.764 331.106 129.026 330.313 129.026 329.217V325.293C129.026 324.181 128.764 323.388 128.241 322.914C127.718 322.423 126.99 322.178 126.058 322.178C125.159 322.178 124.439 322.464 123.9 323.037C123.377 323.609 123.115 324.402 123.115 325.416V329.095C123.115 330.108 123.377 330.901 123.9 331.474C124.439 332.046 125.159 332.332 126.058 332.332ZM140.715 334.245C139.129 334.245 137.846 333.771 136.865 332.823C135.9 331.858 135.418 330.534 135.418 328.849V325.661C135.418 323.977 135.9 322.661 136.865 321.712C137.846 320.747 139.129 320.265 140.715 320.265C141.778 320.265 142.702 320.478 143.487 320.903C144.288 321.328 144.91 321.925 145.351 322.693C145.792 323.462 146.013 324.369 146.013 325.416V327.819H137.576V329.095C137.576 330.092 137.862 330.885 138.434 331.474C139.007 332.046 139.767 332.332 140.715 332.332C141.533 332.332 142.203 332.177 142.727 331.866C143.266 331.539 143.593 331.106 143.708 330.566H145.915C145.768 331.694 145.22 332.594 144.272 333.264C143.323 333.918 142.138 334.245 140.715 334.245ZM137.576 326.102H143.855V325.416C143.855 324.353 143.577 323.535 143.021 322.963C142.481 322.374 141.713 322.08 140.715 322.08C139.718 322.08 138.941 322.374 138.385 322.963C137.846 323.535 137.576 324.353 137.576 325.416V326.102ZM150.811 334V320.51H153.018V323.086H153.067C153.182 322.219 153.55 321.532 154.171 321.025C154.792 320.519 155.626 320.265 156.673 320.265C158.079 320.265 159.158 320.69 159.91 321.54C160.679 322.374 161.063 323.568 161.063 325.121V326.274H158.856V325.121C158.856 323.159 157.899 322.178 155.986 322.178C155.021 322.178 154.285 322.456 153.779 323.012C153.272 323.568 153.018 324.369 153.018 325.416V334H150.811ZM168.166 323.576L169.54 320.559C169.687 320.232 169.801 319.897 169.883 319.554C169.965 319.21 170.006 318.916 170.006 318.671C170.006 318.197 169.891 317.731 169.662 317.273C169.433 316.799 169.114 316.406 168.706 316.096H171.183C171.543 316.423 171.821 316.815 172.017 317.273C172.229 317.731 172.336 318.197 172.336 318.671C172.336 318.998 172.278 319.39 172.164 319.848C172.049 320.306 171.902 320.739 171.722 321.148L170.619 323.576H168.166ZM184.835 334.245C183.249 334.245 181.965 333.771 180.984 332.823C180.019 331.858 179.537 330.534 179.537 328.849V325.661C179.537 323.977 180.019 322.661 180.984 321.712C181.965 320.747 183.249 320.265 184.835 320.265C185.897 320.265 186.821 320.478 187.606 320.903C188.407 321.328 189.029 321.925 189.47 322.693C189.912 323.462 190.132 324.369 190.132 325.416V327.819H181.695V329.095C181.695 330.092 181.981 330.885 182.554 331.474C183.126 332.046 183.886 332.332 184.835 332.332C185.652 332.332 186.323 332.177 186.846 331.866C187.385 331.539 187.712 331.106 187.827 330.566H190.034C189.887 331.694 189.339 332.594 188.391 333.264C187.443 333.918 186.257 334.245 184.835 334.245ZM181.695 326.102H187.974V325.416C187.974 324.353 187.696 323.535 187.14 322.963C186.601 322.374 185.832 322.08 184.835 322.08C183.837 322.08 183.061 322.374 182.505 322.963C181.965 323.535 181.695 324.353 181.695 325.416V326.102ZM198.756 334.245C197.415 334.245 196.336 333.796 195.519 332.896C194.717 331.997 194.317 330.779 194.317 329.242V325.293C194.317 323.74 194.717 322.513 195.519 321.614C196.32 320.715 197.399 320.265 198.756 320.265C199.77 320.265 200.604 320.519 201.258 321.025C201.928 321.532 202.329 322.219 202.46 323.086H202.484L202.435 320.02V316.096H204.643V334H202.435V331.425H202.411C202.296 332.308 201.912 333.003 201.258 333.509C200.604 334 199.77 334.245 198.756 334.245ZM199.492 332.332C200.408 332.332 201.127 332.046 201.65 331.474C202.174 330.901 202.435 330.108 202.435 329.095V325.416C202.435 324.402 202.174 323.609 201.65 323.037C201.127 322.464 200.408 322.178 199.492 322.178C198.56 322.178 197.832 322.423 197.309 322.914C196.786 323.388 196.524 324.181 196.524 325.293V329.217C196.524 330.313 196.786 331.106 197.309 331.596C197.832 332.087 198.56 332.332 199.492 332.332ZM226.869 334V324.361H222.945V322.35H226.869V319.529C226.869 318.466 227.204 317.633 227.875 317.028C228.545 316.406 229.469 316.096 230.646 316.096H234.595V318.107H230.646C229.6 318.107 229.076 318.581 229.076 319.529V322.35H234.595V324.361H229.076V334H226.869ZM242.483 334.245C241.093 334.245 239.989 333.861 239.172 333.093C238.354 332.308 237.945 331.286 237.945 330.027C237.945 329.193 238.133 328.465 238.51 327.844C238.886 327.222 239.409 326.74 240.079 326.397C240.75 326.037 241.518 325.857 242.385 325.857H246.554V324.803C246.554 323.053 245.598 322.178 243.685 322.178C242.834 322.178 242.148 322.334 241.624 322.644C241.101 322.955 240.823 323.388 240.791 323.944H238.583C238.665 322.881 239.155 322.006 240.055 321.32C240.97 320.617 242.18 320.265 243.685 320.265C245.32 320.265 246.571 320.658 247.437 321.442C248.32 322.227 248.762 323.323 248.762 324.729V334H246.579V331.547H246.53C246.399 332.381 245.982 333.043 245.279 333.534C244.576 334.008 243.644 334.245 242.483 334.245ZM243.022 332.381C244.102 332.381 244.96 332.12 245.598 331.596C246.235 331.073 246.554 330.362 246.554 329.463V327.574H242.63C241.911 327.574 241.322 327.795 240.864 328.236C240.423 328.661 240.202 329.234 240.202 329.953C240.202 330.705 240.447 331.302 240.938 331.744C241.445 332.169 242.139 332.381 243.022 332.381ZM253.093 334V331.989H257.876V322.522H253.584V320.51H260.083V331.989H264.621V334H253.093ZM258.734 318.082C258.195 318.082 257.77 317.943 257.459 317.665C257.148 317.387 256.993 317.011 256.993 316.537C256.993 316.047 257.148 315.662 257.459 315.384C257.77 315.09 258.195 314.943 258.734 314.943C259.274 314.943 259.699 315.09 260.01 315.384C260.32 315.662 260.476 316.047 260.476 316.537C260.476 317.011 260.32 317.387 260.01 317.665C259.699 317.943 259.274 318.082 258.734 318.082ZM275.035 334C273.841 334 272.885 333.657 272.165 332.97C271.462 332.267 271.111 331.343 271.111 330.198V318.107H266.451V316.096H273.318V330.198C273.318 330.754 273.474 331.196 273.784 331.523C274.095 331.833 274.512 331.989 275.035 331.989H279.205V334H275.035ZM287.779 334.245C286.193 334.245 284.91 333.771 283.929 332.823C282.964 331.858 282.482 330.534 282.482 328.849V325.661C282.482 323.977 282.964 322.661 283.929 321.712C284.91 320.747 286.193 320.265 287.779 320.265C288.842 320.265 289.766 320.478 290.551 320.903C291.352 321.328 291.973 321.925 292.415 322.693C292.856 323.462 293.077 324.369 293.077 325.416V327.819H284.64V329.095C284.64 330.092 284.926 330.885 285.498 331.474C286.071 332.046 286.831 332.332 287.779 332.332C288.597 332.332 289.267 332.177 289.79 331.866C290.33 331.539 290.657 331.106 290.772 330.566H292.979C292.832 331.694 292.284 332.594 291.336 333.264C290.387 333.918 289.202 334.245 287.779 334.245ZM284.64 326.102H290.919V325.416C290.919 324.353 290.641 323.535 290.085 322.963C289.545 322.374 288.777 322.08 287.779 322.08C286.782 322.08 286.005 322.374 285.449 322.963C284.91 323.535 284.64 324.353 284.64 325.416V326.102ZM301.701 334.245C300.36 334.245 299.281 333.796 298.463 332.896C297.662 331.997 297.262 330.779 297.262 329.242V325.293C297.262 323.74 297.662 322.513 298.463 321.614C299.265 320.715 300.344 320.265 301.701 320.265C302.715 320.265 303.548 320.519 304.203 321.025C304.873 321.532 305.274 322.219 305.404 323.086H305.429L305.38 320.02V316.096H307.587V334H305.38V331.425H305.355C305.241 332.308 304.857 333.003 304.203 333.509C303.548 334 302.715 334.245 301.701 334.245ZM302.437 332.332C303.352 332.332 304.072 332.046 304.595 331.474C305.118 330.901 305.38 330.108 305.38 329.095V325.416C305.38 324.402 305.118 323.609 304.595 323.037C304.072 322.464 303.352 322.178 302.437 322.178C301.505 322.178 300.777 322.423 300.254 322.914C299.731 323.388 299.469 324.181 299.469 325.293V329.217C299.469 330.313 299.731 331.106 300.254 331.596C300.777 332.087 301.505 332.332 302.437 332.332ZM331.923 334.245C330.778 334.245 329.765 334.008 328.882 333.534C328.015 333.043 327.336 332.373 326.846 331.523C326.355 330.656 326.11 329.659 326.11 328.531C326.11 327.746 326.257 326.945 326.552 326.127C326.846 325.293 327.247 324.426 327.753 323.527L331.898 316.096H334.351L329.936 323.772L330.01 323.821C330.222 323.543 330.541 323.331 330.966 323.184C331.392 323.037 331.858 322.963 332.364 322.963C333.427 322.963 334.351 323.2 335.136 323.674C335.937 324.132 336.559 324.77 337 325.587C337.458 326.405 337.687 327.353 337.687 328.432C337.687 329.577 337.441 330.591 336.951 331.474C336.46 332.34 335.782 333.019 334.915 333.509C334.065 334 333.068 334.245 331.923 334.245ZM331.898 332.283C332.961 332.283 333.82 331.932 334.474 331.228C335.144 330.525 335.479 329.61 335.479 328.482C335.479 327.353 335.144 326.438 334.474 325.735C333.82 325.031 332.961 324.68 331.898 324.68C330.836 324.68 329.969 325.031 329.299 325.735C328.645 326.438 328.318 327.353 328.318 328.482C328.318 329.61 328.645 330.525 329.299 331.228C329.969 331.932 330.836 332.283 331.898 332.283ZM343.907 334L350.284 318.107H343.465V321.001H341.258V316.096H352.638V318.156L346.311 334H343.907ZM357.706 324.189C356.659 324.189 355.825 323.895 355.204 323.306C354.599 322.701 354.305 321.892 354.321 320.878V319.284C354.305 318.27 354.599 317.469 355.204 316.88C355.825 316.275 356.659 315.973 357.706 315.973C358.752 315.973 359.578 316.275 360.183 316.88C360.804 317.469 361.123 318.27 361.14 319.284V320.878C361.14 321.892 360.829 322.701 360.208 323.306C359.603 323.895 358.769 324.189 357.706 324.189ZM354.297 334L366.511 316.096H368.326L356.112 334H354.297ZM357.73 322.522C358.221 322.522 358.605 322.374 358.883 322.08C359.177 321.786 359.325 321.385 359.325 320.878V319.284C359.325 318.777 359.177 318.377 358.883 318.082C358.605 317.788 358.221 317.641 357.73 317.641C357.24 317.641 356.847 317.788 356.553 318.082C356.275 318.377 356.136 318.777 356.136 319.284V320.878C356.136 321.385 356.275 321.786 356.553 322.08C356.847 322.374 357.24 322.522 357.73 322.522ZM364.892 334.123C363.846 334.123 363.012 333.828 362.39 333.24C361.785 332.635 361.483 331.825 361.483 330.812V329.217C361.467 328.204 361.769 327.402 362.39 326.814C363.012 326.209 363.846 325.906 364.892 325.906C365.939 325.906 366.764 326.209 367.369 326.814C367.991 327.402 368.301 328.204 368.301 329.217V330.812C368.301 331.825 367.991 332.635 367.369 333.24C366.764 333.828 365.939 334.123 364.892 334.123ZM364.892 332.43C365.383 332.43 365.767 332.291 366.045 332.013C366.339 331.719 366.486 331.318 366.486 330.812V329.217C366.486 328.71 366.339 328.31 366.045 328.016C365.767 327.721 365.374 327.574 364.868 327.574C364.393 327.574 364.009 327.721 363.715 328.016C363.437 328.31 363.298 328.71 363.298 329.217V330.812C363.282 331.318 363.412 331.719 363.69 332.013C363.985 332.291 364.385 332.43 364.892 332.43ZM372.093 326.887V324.925H379.942V326.887H372.093ZM385.573 334V331.989H390.43V318.009L385.573 321.639V319.112L389.62 316.096H392.637V331.989H396.61V334H385.573ZM7.57313 367.245C6.23234 367.245 5.15317 366.796 4.33562 365.896C3.53442 364.997 3.13382 363.779 3.13382 362.242V358.293C3.13382 356.74 3.53442 355.513 4.33562 354.614C5.13682 353.715 6.21599 353.265 7.57313 353.265C8.5869 353.265 9.4208 353.519 10.0748 354.025C10.7452 354.532 11.1458 355.219 11.2767 356.086H11.3012L11.2521 353.02V349.096H13.4595V367H11.2521V364.425H11.2276C11.1131 365.308 10.7289 366.003 10.0748 366.509C9.4208 367 8.5869 367.245 7.57313 367.245ZM8.30893 365.332C9.22459 365.332 9.94404 365.046 10.4673 364.474C10.9905 363.901 11.2521 363.108 11.2521 362.095V358.416C11.2521 357.402 10.9905 356.609 10.4673 356.037C9.94404 355.464 9.22459 355.178 8.30893 355.178C7.37692 355.178 6.6493 355.423 6.12606 355.914C5.60283 356.388 5.34121 357.181 5.34121 358.293V362.217C5.34121 363.313 5.60283 364.106 6.12606 364.596C6.6493 365.087 7.37692 365.332 8.30893 365.332ZM22.7946 367.245C21.1431 367.245 19.835 366.787 18.8703 365.872C17.9056 364.94 17.4232 363.681 17.4232 362.095H19.6306C19.6306 363.076 19.9168 363.852 20.4891 364.425C21.0614 364.997 21.838 365.283 22.8191 365.283C23.8002 365.283 24.5768 364.997 25.1491 364.425C25.7214 363.852 26.0076 363.076 26.0076 362.095V360.868C26.0076 359.887 25.7214 359.111 25.1491 358.538C24.5768 357.966 23.8002 357.68 22.8191 357.68H20.8815V355.767L25.2718 351.107H17.9138V349.096H27.7735V351.156L23.4568 355.742C24.9284 355.857 26.0893 356.372 26.9396 357.287C27.7898 358.187 28.215 359.38 28.215 360.868V362.095C28.215 363.681 27.7244 364.94 26.7434 365.872C25.7786 366.787 24.4624 367.245 22.7946 367.245ZM36.3237 367L31.7372 353.51H34.1163L37.0595 362.585C37.2393 363.125 37.3947 363.648 37.5255 364.155C37.6563 364.645 37.7544 365.03 37.8198 365.308C37.9016 365.03 37.9997 364.645 38.1141 364.155C38.2286 363.648 38.3676 363.125 38.5311 362.585L41.4743 353.51H43.8043L39.2178 367H36.3237ZM52.33 367.245C50.6785 367.245 49.3704 366.787 48.4057 365.872C47.441 364.94 46.9587 363.681 46.9587 362.095H49.166C49.166 363.076 49.4522 363.852 50.0245 364.425C50.5968 364.997 51.3734 365.283 52.3545 365.283C53.3356 365.283 54.1122 364.997 54.6845 364.425C55.2568 363.852 55.543 363.076 55.543 362.095V360.991C55.543 360.01 55.265 359.233 54.7091 358.661C54.1531 358.089 53.401 357.803 52.4526 357.803H47.5718V349.096H57.1127V351.107H49.6321L49.6811 355.791H52.5752C54.2267 355.791 55.5021 356.249 56.4014 357.165C57.3007 358.064 57.7504 359.34 57.7504 360.991V362.095C57.7504 363.681 57.2598 364.94 56.2788 365.872C55.3141 366.787 53.9978 367.245 52.33 367.245ZM62.0329 367V364.989H66.8892V351.009L62.0329 354.639V352.112L66.0798 349.096H69.0966V364.989H73.0699V367H62.0329ZM80.7126 367.245C79.3228 367.245 78.2191 366.861 77.4015 366.093C76.584 365.308 76.1752 364.286 76.1752 363.027C76.1752 362.193 76.3632 361.465 76.7393 360.844C77.1154 360.222 77.6386 359.74 78.309 359.397C78.9794 359.037 79.7479 358.857 80.6145 358.857H84.784V357.803C84.784 356.053 83.8275 355.178 81.9144 355.178C81.0642 355.178 80.3774 355.334 79.8542 355.644C79.331 355.955 79.053 356.388 79.0203 356.944H76.8129C76.8947 355.881 77.3852 355.006 78.2845 354.32C79.2002 353.617 80.4101 353.265 81.9144 353.265C83.5495 353.265 84.8004 353.658 85.667 354.442C86.55 355.227 86.9914 356.323 86.9914 357.729V367H84.8086V364.547H84.7595C84.6287 365.381 84.2118 366.043 83.5087 366.534C82.8056 367.008 81.8736 367.245 80.7126 367.245ZM81.2522 365.381C82.3314 365.381 83.1898 365.12 83.8275 364.596C84.4652 364.073 84.784 363.362 84.784 362.463V360.574H80.8598C80.1403 360.574 79.5517 360.795 79.0939 361.236C78.6524 361.661 78.4317 362.234 78.4317 362.953C78.4317 363.705 78.6769 364.302 79.1675 364.744C79.6743 365.169 80.3693 365.381 81.2522 365.381ZM91.4948 367V353.51H93.7022V356.086H93.7267C93.8411 355.186 94.209 354.491 94.8304 354.001C95.4517 353.51 96.2774 353.265 97.3076 353.265C98.6647 353.265 99.7439 353.682 100.545 354.516C101.346 355.35 101.747 356.486 101.747 357.925V367H99.5395V358.318C99.5395 357.287 99.2779 356.503 98.7546 355.963C98.2478 355.407 97.5528 355.129 96.6699 355.129C95.7542 355.129 95.0266 355.415 94.487 355.988C93.9638 356.56 93.7022 357.369 93.7022 358.416V367H91.4948ZM110.763 367.196C109.259 367.196 108.09 366.861 107.256 366.191C106.438 365.504 106.029 364.539 106.029 363.296H108.237C108.237 363.918 108.458 364.408 108.899 364.768C109.341 365.111 109.962 365.283 110.763 365.283H111.842C112.66 365.283 113.289 365.103 113.731 364.744C114.189 364.384 114.418 363.877 114.418 363.223C114.418 362.062 113.886 361.408 112.823 361.261L109.095 360.721C108.18 360.59 107.468 360.214 106.961 359.593C106.455 358.955 106.201 358.121 106.201 357.091C106.201 355.914 106.602 354.99 107.403 354.32C108.221 353.649 109.341 353.314 110.763 353.314H111.842C113.15 353.314 114.213 353.641 115.031 354.295C115.865 354.933 116.314 355.775 116.38 356.821H114.148C114.115 356.347 113.886 355.955 113.461 355.644C113.052 355.334 112.513 355.178 111.842 355.178H110.763C110.011 355.178 109.422 355.35 108.997 355.693C108.572 356.037 108.359 356.503 108.359 357.091C108.359 358.04 108.793 358.579 109.659 358.71L113.142 359.201C115.431 359.528 116.576 360.868 116.576 363.223C116.576 364.482 116.159 365.463 115.325 366.166C114.507 366.853 113.347 367.196 111.842 367.196H110.763ZM126.009 367.245C125.404 367.245 124.914 367.065 124.537 366.706C124.178 366.346 123.998 365.88 123.998 365.308C123.998 364.703 124.178 364.212 124.537 363.836C124.914 363.46 125.404 363.272 126.009 363.272C126.614 363.272 127.096 363.46 127.456 363.836C127.832 364.212 128.02 364.703 128.02 365.308C128.02 365.88 127.832 366.346 127.456 366.706C127.096 367.065 126.614 367.245 126.009 367.245ZM199.394 367.245C197.742 367.245 196.434 366.787 195.47 365.872C194.505 364.94 194.022 363.681 194.022 362.095H196.23C196.23 363.076 196.516 363.852 197.088 364.425C197.661 364.997 198.437 365.283 199.418 365.283C200.399 365.283 201.176 364.997 201.748 364.425C202.321 363.852 202.607 363.076 202.607 362.095V360.991C202.607 360.01 202.329 359.233 201.773 358.661C201.217 358.089 200.465 357.803 199.516 357.803H194.636V349.096H204.177V351.107H196.696L196.745 355.791H199.639C201.291 355.791 202.566 356.249 203.465 357.165C204.365 358.064 204.814 359.34 204.814 360.991V362.095C204.814 363.681 204.324 364.94 203.343 365.872C202.378 366.787 201.062 367.245 199.394 367.245ZM214.247 367.245C213.642 367.245 213.152 367.065 212.776 366.706C212.416 366.346 212.236 365.88 212.236 365.308C212.236 364.703 212.416 364.212 212.776 363.836C213.152 363.46 213.642 363.272 214.247 363.272C214.852 363.272 215.335 363.46 215.694 363.836C216.071 364.212 216.259 364.703 216.259 365.308C216.259 365.88 216.071 366.346 215.694 366.706C215.335 367.065 214.852 367.245 214.247 367.245ZM228.684 367.245C227.032 367.245 225.724 366.787 224.76 365.872C223.795 364.94 223.313 363.681 223.313 362.095H225.52C225.52 363.076 225.806 363.852 226.378 364.425C226.951 364.997 227.727 365.283 228.708 365.283C229.69 365.283 230.466 364.997 231.039 364.425C231.611 363.852 231.897 363.076 231.897 362.095V360.868C231.897 359.887 231.611 359.111 231.039 358.538C230.466 357.966 229.69 357.68 228.708 357.68H226.771V355.767L231.161 351.107H223.803V349.096H233.663V351.156L229.346 355.742C230.818 355.857 231.979 356.372 232.829 357.287C233.679 358.187 234.104 359.38 234.104 360.868V362.095C234.104 363.681 233.614 364.94 232.633 365.872C231.668 366.787 230.352 367.245 228.684 367.245ZM240.055 357.189C239.008 357.189 238.174 356.895 237.553 356.306C236.948 355.701 236.654 354.892 236.67 353.878V352.284C236.654 351.27 236.948 350.469 237.553 349.88C238.174 349.275 239.008 348.973 240.055 348.973C241.101 348.973 241.927 349.275 242.532 349.88C243.153 350.469 243.472 351.27 243.488 352.284V353.878C243.488 354.892 243.178 355.701 242.556 356.306C241.951 356.895 241.118 357.189 240.055 357.189ZM236.646 367L248.86 349.096H250.675L238.46 367H236.646ZM240.079 355.522C240.57 355.522 240.954 355.374 241.232 355.08C241.526 354.786 241.673 354.385 241.673 353.878V352.284C241.673 351.777 241.526 351.377 241.232 351.082C240.954 350.788 240.57 350.641 240.079 350.641C239.589 350.641 239.196 350.788 238.902 351.082C238.624 351.377 238.485 351.777 238.485 352.284V353.878C238.485 354.385 238.624 354.786 238.902 355.08C239.196 355.374 239.589 355.522 240.079 355.522ZM247.241 367.123C246.195 367.123 245.361 366.828 244.739 366.24C244.134 365.635 243.832 364.825 243.832 363.812V362.217C243.815 361.204 244.118 360.402 244.739 359.814C245.361 359.209 246.195 358.906 247.241 358.906C248.287 358.906 249.113 359.209 249.718 359.814C250.34 360.402 250.65 361.204 250.65 362.217V363.812C250.65 364.825 250.34 365.635 249.718 366.24C249.113 366.828 248.287 367.123 247.241 367.123ZM247.241 365.43C247.732 365.43 248.116 365.291 248.394 365.013C248.688 364.719 248.835 364.318 248.835 363.812V362.217C248.835 361.71 248.688 361.31 248.394 361.016C248.116 360.721 247.723 360.574 247.216 360.574C246.742 360.574 246.358 360.721 246.064 361.016C245.786 361.31 245.647 361.71 245.647 362.217V363.812C245.63 364.318 245.761 364.719 246.039 365.013C246.334 365.291 246.734 365.43 247.241 365.43ZM273.048 367.245C271.495 367.245 270.252 366.787 269.32 365.872C268.388 364.94 267.922 363.681 267.922 362.095V353.51H270.13V362.095C270.13 363.076 270.391 363.861 270.915 364.449C271.438 365.022 272.149 365.308 273.048 365.308C273.964 365.308 274.683 365.022 275.207 364.449C275.746 363.861 276.016 363.076 276.016 362.095V353.51H278.224V362.095C278.224 363.681 277.749 364.94 276.801 365.872C275.853 366.787 274.602 367.245 273.048 367.245ZM282.678 371.415V353.51H284.885V356.086H284.91C285.024 355.203 285.408 354.516 286.062 354.025C286.716 353.519 287.55 353.265 288.564 353.265C289.921 353.265 291 353.715 291.802 354.614C292.603 355.497 293.003 356.715 293.003 358.269V362.217C293.003 363.771 292.603 364.997 291.802 365.896C291 366.796 289.921 367.245 288.564 367.245C287.55 367.245 286.716 366.992 286.062 366.485C285.408 365.978 285.024 365.291 284.91 364.425H284.836L284.885 367.491V371.415H282.678ZM287.828 365.332C288.76 365.332 289.488 365.087 290.011 364.596C290.534 364.106 290.796 363.313 290.796 362.217V358.293C290.796 357.181 290.534 356.388 290.011 355.914C289.488 355.423 288.76 355.178 287.828 355.178C286.929 355.178 286.21 355.464 285.67 356.037C285.147 356.609 284.885 357.402 284.885 358.416V362.095C284.885 363.108 285.147 363.901 285.67 364.474C286.21 365.046 286.929 365.332 287.828 365.332ZM304.448 367C303.254 367 302.298 366.657 301.578 365.97C300.875 365.267 300.524 364.343 300.524 363.198V351.107H295.863V349.096H302.731V363.198C302.731 363.754 302.886 364.196 303.197 364.523C303.508 364.833 303.925 364.989 304.448 364.989H308.617V367H304.448ZM317.192 367.196C315.573 367.196 314.282 366.722 313.317 365.774C312.368 364.825 311.894 363.501 311.894 361.8V358.71C311.894 356.993 312.368 355.669 313.317 354.737C314.265 353.788 315.557 353.314 317.192 353.314C318.827 353.314 320.119 353.788 321.067 354.737C322.016 355.669 322.49 356.993 322.49 358.71V361.8C322.49 363.501 322.007 364.825 321.043 365.774C320.094 366.722 318.811 367.196 317.192 367.196ZM317.192 365.234C318.157 365.234 318.909 364.964 319.449 364.425C320.004 363.885 320.282 363.092 320.282 362.046V358.465C320.282 357.418 320.004 356.625 319.449 356.086C318.909 355.546 318.157 355.276 317.192 355.276C316.244 355.276 315.492 355.546 314.936 356.086C314.38 356.625 314.102 357.418 314.102 358.465V362.046C314.102 363.092 314.38 363.885 314.936 364.425C315.492 364.964 316.244 365.234 317.192 365.234ZM330.721 367.245C329.331 367.245 328.228 366.861 327.41 366.093C326.593 365.308 326.184 364.286 326.184 363.027C326.184 362.193 326.372 361.465 326.748 360.844C327.124 360.222 327.647 359.74 328.318 359.397C328.988 359.037 329.756 358.857 330.623 358.857H334.793V357.803C334.793 356.053 333.836 355.178 331.923 355.178C331.073 355.178 330.386 355.334 329.863 355.644C329.34 355.955 329.062 356.388 329.029 356.944H326.821C326.903 355.881 327.394 355.006 328.293 354.32C329.209 353.617 330.419 353.265 331.923 353.265C333.558 353.265 334.809 353.658 335.676 354.442C336.559 355.227 337 356.323 337 357.729V367H334.817V364.547H334.768C334.637 365.381 334.22 366.043 333.517 366.534C332.814 367.008 331.882 367.245 330.721 367.245ZM331.261 365.381C332.34 365.381 333.198 365.12 333.836 364.596C334.474 364.073 334.793 363.362 334.793 362.463V360.574H330.868C330.149 360.574 329.56 360.795 329.102 361.236C328.661 361.661 328.44 362.234 328.44 362.953C328.44 363.705 328.685 364.302 329.176 364.744C329.683 365.169 330.378 365.381 331.261 365.381ZM345.82 367.245C344.479 367.245 343.4 366.796 342.582 365.896C341.781 364.997 341.381 363.779 341.381 362.242V358.293C341.381 356.74 341.781 355.513 342.582 354.614C343.384 353.715 344.463 353.265 345.82 353.265C346.834 353.265 347.668 353.519 348.322 354.025C348.992 354.532 349.393 355.219 349.524 356.086H349.548L349.499 353.02V349.096H351.706V367H349.499V364.425H349.474C349.36 365.308 348.976 366.003 348.322 366.509C347.668 367 346.834 367.245 345.82 367.245ZM346.556 365.332C347.471 365.332 348.191 365.046 348.714 364.474C349.237 363.901 349.499 363.108 349.499 362.095V358.416C349.499 357.402 349.237 356.609 348.714 356.037C348.191 355.464 347.471 355.178 346.556 355.178C345.624 355.178 344.896 355.423 344.373 355.914C343.85 356.388 343.588 357.181 343.588 358.293V362.217C343.588 363.313 343.85 364.106 344.373 364.596C344.896 365.087 345.624 365.332 346.556 365.332ZM361.311 367.245C360.706 367.245 360.216 367.065 359.84 366.706C359.48 366.346 359.3 365.88 359.3 365.308C359.3 364.703 359.48 364.212 359.84 363.836C360.216 363.46 360.706 363.272 361.311 363.272C361.916 363.272 362.399 363.46 362.758 363.836C363.134 364.212 363.322 364.703 363.322 365.308C363.322 365.88 363.134 366.346 362.758 366.706C362.399 367.065 361.916 367.245 361.311 367.245ZM377.367 367C376.255 367 375.364 366.681 374.693 366.043C374.023 365.389 373.688 364.523 373.688 363.444V355.522H369.812V353.51H373.688V349.709H375.895V353.51H381.413V355.522H375.895V363.444C375.895 363.901 376.026 364.278 376.287 364.572C376.565 364.85 376.925 364.989 377.367 364.989H381.291V367H377.367ZM385.745 367V349.096H387.952V359.078H390.528L394.305 353.51H396.831L392.49 359.936L397.076 367H394.501L390.577 360.991H387.952V367H385.745ZM7.18071 401.245C5.79086 401.245 4.68717 400.861 3.86961 400.093C3.05206 399.308 2.64328 398.286 2.64328 397.027C2.64328 396.193 2.83132 395.465 3.20739 394.844C3.58347 394.222 4.1067 393.74 4.7771 393.397C5.44749 393.037 6.21599 392.857 7.0826 392.857H11.2521V391.803C11.2521 390.053 10.2956 389.178 8.38251 389.178C7.53225 389.178 6.84551 389.334 6.32227 389.644C5.79904 389.955 5.52107 390.388 5.48837 390.944H3.28097C3.36273 389.881 3.85326 389.006 4.75257 388.32C5.66823 387.617 6.87821 387.265 8.38251 387.265C10.0176 387.265 11.2685 387.658 12.1351 388.442C13.018 389.227 13.4595 390.323 13.4595 391.729V401H11.2767V398.547H11.2276C11.0968 399.381 10.6798 400.043 9.97674 400.534C9.27364 401.008 8.34163 401.245 7.18071 401.245ZM7.72029 399.381C8.79946 399.381 9.65789 399.12 10.2956 398.596C10.9333 398.073 11.2521 397.362 11.2521 396.463V394.574H7.32787C6.60842 394.574 6.01978 394.795 5.56195 395.236C5.12047 395.661 4.89973 396.234 4.89973 396.953C4.89973 397.705 5.145 398.302 5.63553 398.744C6.14241 399.169 6.83733 399.381 7.72029 399.381ZM17.9628 401V383.096H22.5984C23.7593 383.096 24.7567 383.316 25.5906 383.758C26.4409 384.199 27.0949 384.821 27.5527 385.622C28.0269 386.423 28.264 387.371 28.264 388.467V395.604C28.264 396.7 28.0269 397.656 27.5527 398.474C27.0949 399.275 26.4409 399.896 25.5906 400.338C24.7567 400.779 23.7593 401 22.5984 401H17.9628ZM20.1702 399.038H22.5984C23.6775 399.038 24.5196 398.735 25.1246 398.13C25.7459 397.525 26.0566 396.683 26.0566 395.604V388.467C26.0566 387.404 25.7459 386.57 25.1246 385.965C24.5196 385.36 23.6775 385.058 22.5984 385.058H20.1702V399.038ZM32.4485 401L33.405 395.849H31.2712V394.255H33.6748L34.5087 389.84H32.1296V388.246H34.7785L35.735 383.096H37.4519L36.4954 388.246H40.4196L41.3762 383.096H43.093L42.1365 388.246H44.2703V389.84H41.8667L41.0328 394.255H43.4119V395.849H40.763L39.8065 401H38.0896L39.0461 395.849H35.1219L34.1653 401H32.4485ZM35.3917 394.255H39.3159L40.1498 389.84H36.2256L35.3917 394.255ZM47.8661 401V387.51H50.0735V390.086H50.1226C50.237 389.219 50.6049 388.532 51.2263 388.025C51.8476 387.519 52.6815 387.265 53.728 387.265C55.1342 387.265 56.2134 387.69 56.9655 388.54C57.734 389.374 58.1183 390.568 58.1183 392.121V393.274H55.9109V392.121C55.9109 390.159 54.9543 389.178 53.0413 389.178C52.0765 389.178 51.3407 389.456 50.8339 390.012C50.327 390.568 50.0735 391.369 50.0735 392.416V401H47.8661ZM67.1835 401.196C65.5648 401.196 64.273 400.722 63.3083 399.774C62.36 398.825 61.8858 397.501 61.8858 395.8V392.71C61.8858 390.993 62.36 389.669 63.3083 388.737C64.2567 387.788 65.5484 387.314 67.1835 387.314C68.8186 387.314 70.1104 387.788 71.0587 388.737C72.0071 389.669 72.4813 390.993 72.4813 392.71V395.8C72.4813 397.501 71.9989 398.825 71.0342 399.774C70.0858 400.722 68.8023 401.196 67.1835 401.196ZM67.1835 399.234C68.1482 399.234 68.9004 398.964 69.44 398.425C69.9959 397.885 70.2739 397.092 70.2739 396.046V392.465C70.2739 391.418 69.9959 390.625 69.44 390.086C68.9004 389.546 68.1482 389.276 67.1835 389.276C66.2352 389.276 65.483 389.546 64.9271 390.086C64.3711 390.625 64.0932 391.418 64.0932 392.465V396.046C64.0932 397.092 64.3711 397.885 64.9271 398.425C65.483 398.964 66.2352 399.234 67.1835 399.234ZM76.7393 401V398.989H81.5956V385.009L76.7393 388.639V386.112L80.7862 383.096H83.803V398.989H87.7763V401H76.7393ZM99.4904 405.415V401.491L99.5395 398.425H99.4659C99.3515 399.291 98.9672 399.978 98.3132 400.485C97.6591 400.992 96.8252 401.245 95.8114 401.245C94.4543 401.245 93.3751 400.796 92.5739 399.896C91.7727 398.997 91.3721 397.771 91.3721 396.217V392.269C91.3721 390.715 91.7727 389.497 92.5739 388.614C93.3915 387.715 94.4707 387.265 95.8114 387.265C96.8252 387.265 97.6591 387.519 98.3132 388.025C98.9672 388.516 99.3515 389.203 99.4659 390.086H99.4904V387.51H101.698V405.415H99.4904ZM96.5472 399.332C97.4629 399.332 98.1823 399.046 98.7056 398.474C99.2288 397.901 99.4904 397.108 99.4904 396.095V392.416C99.4904 391.402 99.2288 390.609 98.7056 390.037C98.1823 389.464 97.4629 389.178 96.5472 389.178C95.6152 389.178 94.8876 389.415 94.3644 389.889C93.8411 390.364 93.5795 391.124 93.5795 392.17V396.34C93.5795 397.386 93.8411 398.147 94.3644 398.621C94.8876 399.095 95.6152 399.332 96.5472 399.332ZM111.278 401.245C109.725 401.245 108.482 400.787 107.55 399.872C106.618 398.94 106.152 397.681 106.152 396.095V387.51H108.359V396.095C108.359 397.076 108.621 397.861 109.144 398.449C109.668 399.022 110.379 399.308 111.278 399.308C112.194 399.308 112.913 399.022 113.436 398.449C113.976 397.861 114.246 397.076 114.246 396.095V387.51H116.453V396.095C116.453 397.681 115.979 398.94 115.031 399.872C114.082 400.787 112.832 401.245 111.278 401.245ZM126.009 401.245C124.423 401.245 123.139 400.771 122.158 399.823C121.194 398.858 120.711 397.534 120.711 395.849V392.661C120.711 390.977 121.194 389.661 122.158 388.712C123.139 387.747 124.423 387.265 126.009 387.265C127.072 387.265 127.996 387.478 128.781 387.903C129.582 388.328 130.203 388.925 130.645 389.693C131.086 390.462 131.307 391.369 131.307 392.416V394.819H122.87V396.095C122.87 397.092 123.156 397.885 123.728 398.474C124.3 399.046 125.061 399.332 126.009 399.332C126.827 399.332 127.497 399.177 128.02 398.866C128.56 398.539 128.887 398.106 129.001 397.566H131.209C131.062 398.694 130.514 399.594 129.565 400.264C128.617 400.918 127.432 401.245 126.009 401.245ZM122.87 393.102H129.148V392.416C129.148 391.353 128.87 390.535 128.315 389.963C127.775 389.374 127.006 389.08 126.009 389.08C125.012 389.08 124.235 389.374 123.679 389.963C123.139 390.535 122.87 391.353 122.87 392.416V393.102ZM140.715 401.245C140.11 401.245 139.62 401.065 139.244 400.706C138.884 400.346 138.704 399.88 138.704 399.308C138.704 398.703 138.884 398.212 139.244 397.836C139.62 397.46 140.11 397.272 140.715 397.272C141.32 397.272 141.803 397.46 142.163 397.836C142.539 398.212 142.727 398.703 142.727 399.308C142.727 399.88 142.539 400.346 142.163 400.706C141.803 401.065 141.32 401.245 140.715 401.245ZM150.811 401V387.51H153.018V390.086H153.067C153.182 389.219 153.55 388.532 154.171 388.025C154.792 387.519 155.626 387.265 156.673 387.265C158.079 387.265 159.158 387.69 159.91 388.54C160.679 389.374 161.063 390.568 161.063 392.121V393.274H158.856V392.121C158.856 390.159 157.899 389.178 155.986 389.178C155.021 389.178 154.285 389.456 153.779 390.012C153.272 390.568 153.018 391.369 153.018 392.416V401H150.811ZM168.951 401.245C167.561 401.245 166.457 400.861 165.64 400.093C164.822 399.308 164.414 398.286 164.414 397.027C164.414 396.193 164.602 395.465 164.978 394.844C165.354 394.222 165.877 393.74 166.547 393.397C167.218 393.037 167.986 392.857 168.853 392.857H173.022V391.803C173.022 390.053 172.066 389.178 170.153 389.178C169.302 389.178 168.616 389.334 168.093 389.644C167.569 389.955 167.291 390.388 167.259 390.944H165.051C165.133 389.881 165.623 389.006 166.523 388.32C167.438 387.617 168.648 387.265 170.153 387.265C171.788 387.265 173.039 387.658 173.905 388.442C174.788 389.227 175.23 390.323 175.23 391.729V401H173.047V398.547H172.998C172.867 399.381 172.45 400.043 171.747 400.534C171.044 401.008 170.112 401.245 168.951 401.245ZM169.491 399.381C170.57 399.381 171.428 399.12 172.066 398.596C172.704 398.073 173.022 397.362 173.022 396.463V394.574H169.098C168.379 394.574 167.79 394.795 167.332 395.236C166.891 395.661 166.67 396.234 166.67 396.953C166.67 397.705 166.915 398.302 167.406 398.744C167.913 399.169 168.608 399.381 169.491 399.381ZM180.224 401V387.51H182.431V390.086H182.48C182.595 389.219 182.962 388.532 183.584 388.025C184.205 387.519 185.039 387.265 186.085 387.265C187.492 387.265 188.571 387.69 189.323 388.54C190.091 389.374 190.476 390.568 190.476 392.121V393.274H188.268V392.121C188.268 390.159 187.312 389.178 185.399 389.178C184.434 389.178 183.698 389.456 183.191 390.012C182.684 390.568 182.431 391.369 182.431 392.416V401H180.224ZM214.247 401.245C212.661 401.245 211.378 400.771 210.397 399.823C209.432 398.858 208.95 397.534 208.95 395.849V392.661C208.95 390.977 209.432 389.661 210.397 388.712C211.378 387.747 212.661 387.265 214.247 387.265C215.31 387.265 216.234 387.478 217.019 387.903C217.82 388.328 218.441 388.925 218.883 389.693C219.324 390.462 219.545 391.369 219.545 392.416V394.819H211.108V396.095C211.108 397.092 211.394 397.885 211.966 398.474C212.539 399.046 213.299 399.332 214.247 399.332C215.065 399.332 215.735 399.177 216.259 398.866C216.798 398.539 217.125 398.106 217.24 397.566H219.447C219.3 398.694 218.752 399.594 217.804 400.264C216.855 400.918 215.67 401.245 214.247 401.245ZM211.108 393.102H217.387V392.416C217.387 391.353 217.109 390.535 216.553 389.963C216.013 389.374 215.245 389.08 214.247 389.08C213.25 389.08 212.473 389.374 211.917 389.963C211.378 390.535 211.108 391.353 211.108 392.416V393.102ZM222.822 401L227.605 394.059L223.116 387.51H225.716L228.39 391.68C228.504 391.86 228.61 392.056 228.708 392.269C228.823 392.481 228.913 392.653 228.978 392.784C229.027 392.653 229.101 392.481 229.199 392.269C229.313 392.056 229.428 391.86 229.542 391.68L232.216 387.51H234.816L230.327 394.083L235.085 401H232.486L229.591 396.585C229.477 396.405 229.363 396.201 229.248 395.972C229.15 395.727 229.06 395.531 228.978 395.383C228.913 395.531 228.815 395.727 228.684 395.972C228.569 396.201 228.447 396.405 228.316 396.585L225.422 401H222.822ZM245.009 401C243.897 401 243.006 400.681 242.336 400.043C241.665 399.389 241.33 398.523 241.33 397.444V389.522H237.455V387.51H241.33V383.709H243.538V387.51H249.056V389.522H243.538V397.444C243.538 397.901 243.668 398.278 243.93 398.572C244.208 398.85 244.568 398.989 245.009 398.989H248.933V401H245.009ZM253.756 401V387.51H255.963V390.086H256.012C256.126 389.219 256.494 388.532 257.116 388.025C257.737 387.519 258.571 387.265 259.617 387.265C261.024 387.265 262.103 387.69 262.855 388.54C263.623 389.374 264.008 390.568 264.008 392.121V393.274H261.8V392.121C261.8 390.159 260.844 389.178 258.931 389.178C257.966 389.178 257.23 389.456 256.723 390.012C256.216 390.568 255.963 391.369 255.963 392.416V401H253.756ZM271.896 401.245C270.506 401.245 269.402 400.861 268.585 400.093C267.767 399.308 267.358 398.286 267.358 397.027C267.358 396.193 267.546 395.465 267.922 394.844C268.298 394.222 268.822 393.74 269.492 393.397C270.162 393.037 270.931 392.857 271.798 392.857H275.967V391.803C275.967 390.053 275.011 389.178 273.097 389.178C272.247 389.178 271.56 389.334 271.037 389.644C270.514 389.955 270.236 390.388 270.203 390.944H267.996C268.078 389.881 268.568 389.006 269.468 388.32C270.383 387.617 271.593 387.265 273.097 387.265C274.733 387.265 275.983 387.658 276.85 388.442C277.733 389.227 278.174 390.323 278.174 391.729V401H275.992V398.547H275.943C275.812 399.381 275.395 400.043 274.692 400.534C273.989 401.008 273.057 401.245 271.896 401.245ZM272.435 399.381C273.514 399.381 274.373 399.12 275.011 398.596C275.648 398.073 275.967 397.362 275.967 396.463V394.574H272.043C271.323 394.574 270.735 394.795 270.277 395.236C269.835 395.661 269.615 396.234 269.615 396.953C269.615 397.705 269.86 398.302 270.35 398.744C270.857 399.169 271.552 399.381 272.435 399.381ZM287.975 401.245C286.34 401.245 285.032 400.787 284.051 399.872C283.07 398.956 282.58 397.697 282.58 396.095V392.416C282.58 390.813 283.07 389.554 284.051 388.639C285.032 387.723 286.34 387.265 287.975 387.265C289.529 387.265 290.78 387.682 291.728 388.516C292.693 389.35 293.2 390.486 293.249 391.925H291.041C290.992 391.059 290.698 390.396 290.158 389.938C289.619 389.464 288.891 389.227 287.975 389.227C287.011 389.227 286.234 389.505 285.645 390.061C285.073 390.601 284.787 391.377 284.787 392.391V396.095C284.787 397.108 285.073 397.893 285.645 398.449C286.234 399.005 287.011 399.283 287.975 399.283C288.891 399.283 289.619 399.046 290.158 398.572C290.698 398.098 290.992 397.435 291.041 396.585H293.249C293.2 398.024 292.693 399.161 291.728 399.994C290.78 400.828 289.529 401.245 287.975 401.245ZM303.835 401C302.723 401 301.832 400.681 301.161 400.043C300.491 399.389 300.156 398.523 300.156 397.444V389.522H296.28V387.51H300.156V383.709H302.363V387.51H307.882V389.522H302.363V397.444C302.363 397.901 302.494 398.278 302.755 398.572C303.033 398.85 303.393 398.989 303.835 398.989H307.759V401H303.835ZM317.192 401.245C315.606 401.245 314.322 400.771 313.341 399.823C312.377 398.858 311.894 397.534 311.894 395.849V392.661C311.894 390.977 312.377 389.661 313.341 388.712C314.322 387.747 315.606 387.265 317.192 387.265C318.255 387.265 319.179 387.478 319.964 387.903C320.765 388.328 321.386 388.925 321.828 389.693C322.269 390.462 322.49 391.369 322.49 392.416V394.819H314.053V396.095C314.053 397.092 314.339 397.885 314.911 398.474C315.483 399.046 316.244 399.332 317.192 399.332C318.01 399.332 318.68 399.177 319.203 398.866C319.743 398.539 320.07 398.106 320.184 397.566H322.392C322.245 398.694 321.697 399.594 320.748 400.264C319.8 400.918 318.615 401.245 317.192 401.245ZM314.053 393.102H320.331V392.416C320.331 391.353 320.053 390.535 319.498 389.963C318.958 389.374 318.189 389.08 317.192 389.08C316.195 389.08 315.418 389.374 314.862 389.963C314.322 390.535 314.053 391.353 314.053 392.416V393.102ZM331.114 401.245C329.773 401.245 328.694 400.796 327.876 399.896C327.075 398.997 326.674 397.779 326.674 396.242V392.293C326.674 390.74 327.075 389.513 327.876 388.614C328.677 387.715 329.756 387.265 331.114 387.265C332.127 387.265 332.961 387.519 333.615 388.025C334.286 388.532 334.686 389.219 334.817 390.086H334.842L334.793 387.02V383.096H337V401H334.793V398.425H334.768C334.654 399.308 334.269 400.003 333.615 400.509C332.961 401 332.127 401.245 331.114 401.245ZM331.849 399.332C332.765 399.332 333.485 399.046 334.008 398.474C334.531 397.901 334.793 397.108 334.793 396.095V392.416C334.793 391.402 334.531 390.609 334.008 390.037C333.485 389.464 332.765 389.178 331.849 389.178C330.917 389.178 330.19 389.423 329.667 389.914C329.143 390.388 328.882 391.181 328.882 392.293V396.217C328.882 397.313 329.143 398.106 329.667 398.596C330.19 399.087 330.917 399.332 331.849 399.332Z" fill="#757575"/>
<path d="M37.7708 301.196C36.152 301.196 34.8603 300.722 33.8955 299.774C32.9472 298.825 32.473 297.501 32.473 295.8V292.71C32.473 290.993 32.9472 289.669 33.8955 288.737C34.8439 287.788 36.1356 287.314 37.7708 287.314C39.4059 287.314 40.6976 287.788 41.646 288.737C42.5943 289.669 43.0685 290.993 43.0685 292.71V295.8C43.0685 297.501 42.5861 298.825 41.6214 299.774C40.6731 300.722 39.3895 301.196 37.7708 301.196ZM37.7708 299.234C38.7355 299.234 39.4876 298.964 40.0272 298.425C40.5831 297.885 40.8611 297.092 40.8611 296.046V292.465C40.8611 291.418 40.5831 290.625 40.0272 290.086C39.4876 289.546 38.7355 289.276 37.7708 289.276C36.8224 289.276 36.0702 289.546 35.5143 290.086C34.9584 290.625 34.6804 291.418 34.6804 292.465V296.046C34.6804 297.092 34.9584 297.885 35.5143 298.425C36.0702 298.964 36.8224 299.234 37.7708 299.234ZM229.739 301.245C228.725 301.245 227.891 301 227.237 300.509C226.583 300.003 226.199 299.308 226.084 298.425H226.06V301H223.852V283.096H226.06V287.02L226.011 290.086H226.035C226.166 289.219 226.558 288.532 227.212 288.025C227.883 287.519 228.725 287.265 229.739 287.265C231.096 287.265 232.175 287.715 232.976 288.614C233.777 289.513 234.178 290.74 234.178 292.293V296.242C234.178 297.779 233.777 298.997 232.976 299.896C232.175 300.796 231.096 301.245 229.739 301.245ZM229.003 299.332C229.935 299.332 230.662 299.087 231.186 298.596C231.709 298.106 231.971 297.313 231.971 296.217V292.293C231.971 291.181 231.709 290.388 231.186 289.914C230.662 289.423 229.935 289.178 229.003 289.178C228.103 289.178 227.384 289.464 226.844 290.037C226.321 290.609 226.06 291.402 226.06 292.416V296.095C226.06 297.108 226.321 297.901 226.844 298.474C227.384 299.046 228.103 299.332 229.003 299.332ZM239.049 301V287.51H241.257V290.086H241.306C241.42 289.219 241.788 288.532 242.409 288.025C243.031 287.519 243.865 287.265 244.911 287.265C246.317 287.265 247.396 287.69 248.149 288.54C248.917 289.374 249.301 290.568 249.301 292.121V293.274H247.094V292.121C247.094 290.159 246.137 289.178 244.224 289.178C243.26 289.178 242.524 289.456 242.017 290.012C241.51 290.568 241.257 291.369 241.257 292.416V301H239.049ZM258.367 301.245C256.78 301.245 255.497 300.771 254.516 299.823C253.551 298.858 253.069 297.534 253.069 295.849V292.661C253.069 290.977 253.551 289.661 254.516 288.712C255.497 287.747 256.78 287.265 258.367 287.265C259.429 287.265 260.353 287.478 261.138 287.903C261.939 288.328 262.561 288.925 263.002 289.693C263.444 290.462 263.664 291.369 263.664 292.416V294.819H255.227V296.095C255.227 297.092 255.513 297.885 256.086 298.474C256.658 299.046 257.418 299.332 258.367 299.332C259.184 299.332 259.854 299.177 260.378 298.866C260.917 298.539 261.244 298.106 261.359 297.566H263.566C263.419 298.694 262.871 299.594 261.923 300.264C260.975 300.918 259.789 301.245 258.367 301.245ZM255.227 293.102H261.506V292.416C261.506 291.353 261.228 290.535 260.672 289.963C260.132 289.374 259.364 289.08 258.367 289.08C257.369 289.08 256.592 289.374 256.037 289.963C255.497 290.535 255.227 291.353 255.227 292.416V293.102ZM271.896 301.245C270.506 301.245 269.402 300.861 268.585 300.093C267.767 299.308 267.358 298.286 267.358 297.027C267.358 296.193 267.546 295.465 267.922 294.844C268.298 294.222 268.822 293.74 269.492 293.397C270.162 293.037 270.931 292.857 271.798 292.857H275.967V291.803C275.967 290.053 275.011 289.178 273.097 289.178C272.247 289.178 271.56 289.334 271.037 289.644C270.514 289.955 270.236 290.388 270.203 290.944H267.996C268.078 289.881 268.568 289.006 269.468 288.32C270.383 287.617 271.593 287.265 273.097 287.265C274.733 287.265 275.983 287.658 276.85 288.442C277.733 289.227 278.174 290.323 278.174 291.729V301H275.992V298.547H275.943C275.812 299.381 275.395 300.043 274.692 300.534C273.989 301.008 273.057 301.245 271.896 301.245ZM272.435 299.381C273.514 299.381 274.373 299.12 275.011 298.596C275.648 298.073 275.967 297.362 275.967 296.463V294.574H272.043C271.323 294.574 270.735 294.795 270.277 295.236C269.835 295.661 269.615 296.234 269.615 296.953C269.615 297.705 269.86 298.302 270.35 298.744C270.857 299.169 271.552 299.381 272.435 299.381ZM287.975 301.245C286.34 301.245 285.032 300.787 284.051 299.872C283.07 298.956 282.58 297.697 282.58 296.095V292.416C282.58 290.813 283.07 289.554 284.051 288.639C285.032 287.723 286.34 287.265 287.975 287.265C289.529 287.265 290.78 287.682 291.728 288.516C292.693 289.35 293.2 290.486 293.249 291.925H291.041C290.992 291.059 290.698 290.396 290.158 289.938C289.619 289.464 288.891 289.227 287.975 289.227C287.011 289.227 286.234 289.505 285.645 290.061C285.073 290.601 284.787 291.377 284.787 292.391V296.095C284.787 297.108 285.073 297.893 285.645 298.449C286.234 299.005 287.011 299.283 287.975 299.283C288.891 299.283 289.619 299.046 290.158 298.572C290.698 298.098 290.992 297.435 291.041 296.585H293.249C293.2 298.024 292.693 299.161 291.728 299.994C290.78 300.828 289.529 301.245 287.975 301.245ZM297.384 301V283.096H299.592V290.086H299.616C299.731 289.186 300.098 288.491 300.72 288.001C301.341 287.51 302.167 287.265 303.197 287.265C304.554 287.265 305.633 287.682 306.434 288.516C307.236 289.35 307.636 290.486 307.636 291.925V301H305.429V292.293C305.429 291.279 305.167 290.503 304.644 289.963C304.137 289.407 303.442 289.129 302.559 289.129C301.644 289.129 300.916 289.415 300.376 289.988C299.853 290.56 299.592 291.369 299.592 292.416V301H297.384ZM317.192 301.245C315.606 301.245 314.322 300.771 313.341 299.823C312.377 298.858 311.894 297.534 311.894 295.849V292.661C311.894 290.977 312.377 289.661 313.341 288.712C314.322 287.747 315.606 287.265 317.192 287.265C318.255 287.265 319.179 287.478 319.964 287.903C320.765 288.328 321.386 288.925 321.828 289.693C322.269 290.462 322.49 291.369 322.49 292.416V294.819H314.053V296.095C314.053 297.092 314.339 297.885 314.911 298.474C315.483 299.046 316.244 299.332 317.192 299.332C318.01 299.332 318.68 299.177 319.203 298.866C319.743 298.539 320.07 298.106 320.184 297.566H322.392C322.245 298.694 321.697 299.594 320.748 300.264C319.8 300.918 318.615 301.245 317.192 301.245ZM314.053 293.102H320.331V292.416C320.331 291.353 320.053 290.535 319.498 289.963C318.958 289.374 318.189 289.08 317.192 289.08C316.195 289.08 315.418 289.374 314.862 289.963C314.322 290.535 314.053 291.353 314.053 292.416V293.102ZM331.114 301.245C329.773 301.245 328.694 300.796 327.876 299.896C327.075 298.997 326.674 297.779 326.674 296.242V292.293C326.674 290.74 327.075 289.513 327.876 288.614C328.677 287.715 329.756 287.265 331.114 287.265C332.127 287.265 332.961 287.519 333.615 288.025C334.286 288.532 334.686 289.219 334.817 290.086H334.842L334.793 287.02V283.096H337V301H334.793V298.425H334.768C334.654 299.308 334.269 300.003 333.615 300.509C332.961 301 332.127 301.245 331.114 301.245ZM331.849 299.332C332.765 299.332 333.485 299.046 334.008 298.474C334.531 297.901 334.793 297.108 334.793 296.095V292.416C334.793 291.402 334.531 290.609 334.008 290.037C333.485 289.464 332.765 289.178 331.849 289.178C330.917 289.178 330.19 289.423 329.667 289.914C329.143 290.388 328.882 291.181 328.882 292.293V296.217C328.882 297.313 329.143 298.106 329.667 298.596C330.19 299.087 330.917 299.332 331.849 299.332ZM140.715 367.245C139.129 367.245 137.846 366.771 136.865 365.823C135.9 364.858 135.418 363.534 135.418 361.849V358.661C135.418 356.977 135.9 355.661 136.865 354.712C137.846 353.747 139.129 353.265 140.715 353.265C141.778 353.265 142.702 353.478 143.487 353.903C144.288 354.328 144.91 354.925 145.351 355.693C145.792 356.462 146.013 357.369 146.013 358.416V360.819H137.576V362.095C137.576 363.092 137.862 363.885 138.434 364.474C139.007 365.046 139.767 365.332 140.715 365.332C141.533 365.332 142.203 365.177 142.727 364.866C143.266 364.539 143.593 364.106 143.708 363.566H145.915C145.768 364.694 145.22 365.594 144.272 366.264C143.323 366.918 142.138 367.245 140.715 367.245ZM137.576 359.102H143.855V358.416C143.855 357.353 143.577 356.535 143.021 355.963C142.481 355.374 141.713 355.08 140.715 355.08C139.718 355.08 138.941 355.374 138.385 355.963C137.846 356.535 137.576 357.353 137.576 358.416V359.102ZM149.29 367L154.073 360.059L149.584 353.51H152.184L154.858 357.68C154.972 357.86 155.078 358.056 155.177 358.269C155.291 358.481 155.381 358.653 155.446 358.784C155.495 358.653 155.569 358.481 155.667 358.269C155.782 358.056 155.896 357.86 156.01 357.68L158.684 353.51H161.284L156.795 360.083L161.553 367H158.954L156.06 362.585C155.945 362.405 155.831 362.201 155.716 361.972C155.618 361.727 155.528 361.531 155.446 361.383C155.381 361.531 155.283 361.727 155.152 361.972C155.038 362.201 154.915 362.405 154.784 362.585L151.89 367H149.29ZM170.128 367.245C168.542 367.245 167.259 366.771 166.278 365.823C165.313 364.858 164.83 363.534 164.83 361.849V358.661C164.83 356.977 165.313 355.661 166.278 354.712C167.259 353.747 168.542 353.265 170.128 353.265C171.191 353.265 172.115 353.478 172.9 353.903C173.701 354.328 174.322 354.925 174.764 355.693C175.205 356.462 175.426 357.369 175.426 358.416V360.819H166.989V362.095C166.989 363.092 167.275 363.885 167.847 364.474C168.42 365.046 169.18 365.332 170.128 365.332C170.946 365.332 171.616 365.177 172.139 364.866C172.679 364.539 173.006 364.106 173.12 363.566H175.328C175.181 364.694 174.633 365.594 173.685 366.264C172.736 366.918 171.551 367.245 170.128 367.245ZM166.989 359.102H173.268V358.416C173.268 357.353 172.99 356.535 172.434 355.963C171.894 355.374 171.126 355.08 170.128 355.08C169.131 355.08 168.354 355.374 167.798 355.963C167.259 356.535 166.989 357.353 166.989 358.416V359.102Z" fill="#FF0000" fill-opacity="0.52"/>
<path d="M398.999 585.859H0V584.662H398.999V585.859Z" fill="#FD1212" fill-opacity="0.67"/>
<path d="M0 585.261V582.268H36.8168L40.4087 585.261H0Z" fill="#FD1212" fill-opacity="0.67"/>
<path d="M399 585.261V582.268H362.183L358.891 585.261H399Z" fill="#FD1212" fill-opacity="0.67"/>
<path d="M100.872 591.248H0V590.35H100.872V591.248Z" fill="white" fill-opacity="0.67"/>
<path d="M107.155 590.948H105.359V589.152H107.155V590.948Z" fill="#FD1212" fill-opacity="0.67"/>
<path d="M113.446 590.948H111.65V589.152H113.446V590.948Z" fill="#FD1212" fill-opacity="0.67"/>
<path d="M119.731 590.948H117.935V589.152H119.731V590.948Z" fill="#FD1212" fill-opacity="0.67"/>
<path d="M126.016 590.948H124.22V589.152H126.016V590.948Z" fill="#FD1212" fill-opacity="0.67"/>
<path d="M132.3 590.948H130.504V589.152H132.3V590.948Z" fill="#FD1212" fill-opacity="0.67"/>
<path d="M138.585 590.948H136.789V589.152H138.585V590.948Z" fill="#FD1212" fill-opacity="0.67"/>
<path d="M309.8 589.152H398.998V592.444H309.8V589.152Z" fill="white" fill-opacity="0.67"/>
<path opacity="0.1" d="M48.4883 585.262L196.354 554.431L349.907 585.262H48.4883Z" fill="white"/>
<path opacity="0.1" d="M48.4883 585.261L196.354 535.873L349.907 585.261H48.4883Z" fill="white"/>
<path opacity="0.1" d="M48.4883 585.26L196.354 522.702L349.907 585.26H48.4883Z" fill="white"/>
<path opacity="0.1" d="M48.4883 585.262L196.354 458.648L349.907 585.262H48.4883Z" fill="white"/>
<path opacity="0.1" d="M48.4883 585.26L196.354 435L349.907 585.26H48.4883Z" fill="white"/>
<path fill-rule="evenodd" clip-rule="evenodd" d="M354.699 585.861H47.5933L47.8926 584.963L75.131 517.615H75.7297L354.699 585.861ZM49.3892 584.664H345.42L76.029 518.813L49.3892 584.664Z" fill="white" fill-opacity="0.67"/>
<path d="M349.909 585.86L146.069 514.621L48.7891 585.86L48.1904 584.962L145.77 513.424H146.069L350.208 584.663L349.909 585.86Z" fill="#FD1212" fill-opacity="0.67"/>
<path d="M48.7891 585.561L48.1904 584.962L230.479 440.688L230.778 440.988L350.507 584.962L349.609 585.561L230.179 442.185L48.7891 585.561Z" fill="white" fill-opacity="0.67"/>
<path d="M48.7891 585.859L48.1904 584.662L304.711 479.899L350.507 584.961L349.609 585.56L304.112 481.395L48.7891 585.859Z" fill="white" fill-opacity="0.67"/>
<path d="M349.909 585.86L146.069 514.621L48.7891 585.86L48.1904 584.962L145.77 513.424H146.069L350.208 584.663L349.909 585.86Z" fill="white" fill-opacity="0.67"/>
<path d="M306.807 478.402L309.501 475.409H322.072V478.402H306.807Z" fill="#FD1212" fill-opacity="0.67"/>
<path d="M322.369 473.614V475.111H324.165L322.369 473.614Z" fill="#FD1212" fill-opacity="0.67"/>
<path d="M235.267 439.791L237.961 436.798H250.832V439.791H235.267Z" fill="#FD1212" fill-opacity="0.67"/>
<path d="M251.133 435V436.497H252.929L251.133 435Z" fill="#FD1212" fill-opacity="0.67"/>
<path d="M73.6351 516.417L70.6419 513.424H58.0703V516.417H73.6351Z" fill="#FD1212" fill-opacity="0.67"/>
<path d="M57.7671 511.629V513.125H55.9712L57.7671 511.629Z" fill="#FD1212" fill-opacity="0.67"/>
<path d="M143.373 513.124L140.68 510.43H127.809V513.124H143.373Z" fill="#FD1212" fill-opacity="0.67"/>
<path d="M127.512 508.335V510.131H125.716L127.512 508.335Z" fill="#FD1212" fill-opacity="0.67"/>
<path d="M10.4761 437.993H7.48291V435H10.4761V437.993Z" fill="#FD1212" fill-opacity="0.67"/>
<path d="M34.1241 437.993H31.1309V435H34.1241V437.993Z" fill="#FD1212" fill-opacity="0.67"/>
<path d="M114.339 437.993H111.346V435H114.339V437.993Z" fill="#FD1212" fill-opacity="0.67"/>
<path d="M205.633 437.993H202.64V435H205.633V437.993Z" fill="#FD1212" fill-opacity="0.67"/>
<path d="M315.19 437.993H312.197V435H315.19V437.993Z" fill="#FD1212" fill-opacity="0.67"/>
<path d="M331.653 437.993H328.66V435H331.653V437.993Z" fill="#FD1212" fill-opacity="0.67"/>
<path d="M375.055 437.993H372.062V435H375.055V437.993Z" fill="#FD1212" fill-opacity="0.67"/>
<path d="M10.4761 461.641H7.48291V458.648H10.4761V461.641Z" fill="#FD1212" fill-opacity="0.67"/>
<path d="M34.1241 461.641H31.1309V458.648H34.1241V461.641Z" fill="#FD1212" fill-opacity="0.67"/>
<path d="M114.339 461.641H111.346V458.648H114.339V461.641Z" fill="#FD1212" fill-opacity="0.67"/>
<path d="M205.633 461.641H202.64V458.648H205.633V461.641Z" fill="#FD1212" fill-opacity="0.67"/>
<path d="M315.19 461.641H312.197V458.648H315.19V461.641Z" fill="#FD1212" fill-opacity="0.67"/>
<path d="M331.653 461.641H328.66V458.648H331.653V461.641Z" fill="#FD1212" fill-opacity="0.67"/>
<path d="M375.055 461.641H372.062V458.648H375.055V461.641Z" fill="#FD1212" fill-opacity="0.67"/>
<path d="M10.4761 485.587H7.48291V482.594H10.4761V485.587Z" fill="#FD1212" fill-opacity="0.67"/>
<path d="M34.1241 485.587H31.1309V482.594H34.1241V485.587Z" fill="#FD1212" fill-opacity="0.67"/>
<path d="M114.339 485.587H111.346V482.594H114.339V485.587Z" fill="#FD1212" fill-opacity="0.67"/>
<path d="M205.633 485.587H202.64V482.594H205.633V485.587Z" fill="#FD1212" fill-opacity="0.67"/>
<path d="M315.19 485.587H312.197V482.594H315.19V485.587Z" fill="#FD1212" fill-opacity="0.67"/>
<path d="M331.653 485.587H328.66V482.594H331.653V485.587Z" fill="#FD1212" fill-opacity="0.67"/>
<path d="M375.055 485.587H372.062V482.594H375.055V485.587Z" fill="#FD1212" fill-opacity="0.67"/>
<path d="M10.4761 509.533H7.48291V506.54H10.4761V509.533Z" fill="#FD1212" fill-opacity="0.67"/>
<path d="M34.1241 509.533H31.1309V506.54H34.1241V509.533Z" fill="#FD1212" fill-opacity="0.67"/>
<path d="M114.339 509.533H111.346V506.54H114.339V509.533Z" fill="#FD1212" fill-opacity="0.67"/>
<path d="M205.633 509.533H202.64V506.54H205.633V509.533Z" fill="#FD1212" fill-opacity="0.67"/>
<path d="M315.19 509.533H312.197V506.54H315.19V509.533Z" fill="#FD1212" fill-opacity="0.67"/>
<path d="M331.653 509.533H328.66V506.54H331.653V509.533Z" fill="#FD1212" fill-opacity="0.67"/>
<path d="M375.055 509.533H372.062V506.54H375.055V509.533Z" fill="#FD1212" fill-opacity="0.67"/>
<path d="M10.4761 533.178H7.48291V530.184H10.4761V533.178Z" fill="#FD1212" fill-opacity="0.67"/>
<path d="M34.1241 533.178H31.1309V530.184H34.1241V533.178Z" fill="#FD1212" fill-opacity="0.67"/>
<path d="M114.339 533.178H111.346V530.184H114.339V533.178Z" fill="#FD1212" fill-opacity="0.67"/>
<path d="M205.633 533.178H202.64V530.184H205.633V533.178Z" fill="#FD1212" fill-opacity="0.67"/>
<path d="M315.19 533.178H312.197V530.184H315.19V533.178Z" fill="#FD1212" fill-opacity="0.67"/>
<path d="M331.653 533.178H328.66V530.184H331.653V533.178Z" fill="#FD1212" fill-opacity="0.67"/>
<path d="M375.055 533.178H372.062V530.184H375.055V533.178Z" fill="#FD1212" fill-opacity="0.67"/>
<path d="M10.4761 557.124H7.48291V554.13H10.4761V557.124Z" fill="#FD1212" fill-opacity="0.67"/>
<path d="M34.1241 557.124H31.1309V554.13H34.1241V557.124Z" fill="#FD1212" fill-opacity="0.67"/>
<path d="M114.339 557.124H111.346V554.13H114.339V557.124Z" fill="#FD1212" fill-opacity="0.67"/>
<path d="M205.633 557.124H202.64V554.13H205.633V557.124Z" fill="#FD1212" fill-opacity="0.67"/>
<path d="M315.19 557.124H312.197V554.13H315.19V557.124Z" fill="#FD1212" fill-opacity="0.67"/>
<path d="M331.653 557.124H328.66V554.13H331.653V557.124Z" fill="#FD1212" fill-opacity="0.67"/>
<path d="M375.055 557.124H372.062V554.13H375.055V557.124Z" fill="#FD1212" fill-opacity="0.67"/>
</svg>
